<?xml version="1.0" standalone="no"?>
<!DOCTYPE svg PUBLIC "-//W3C//DTD SVG 20010904//EN"
 "http://www.w3.org/TR/2001/REC-SVG-20010904/DTD/svg10.dtd">
<svg version="1.0" xmlns="http://www.w3.org/2000/svg"
 width="447.000000pt" height="447.000000pt" viewBox="0 0 447.000000 447.000000"
 preserveAspectRatio="xMidYMid meet">

<g transform="translate(0.000000,447.000000) scale(0.100000,-0.100000)"
fill="#000000" stroke="none">
<path d="M2138 4367 c6 -7 13 -58 14 -113 l3 -99 60 0 c52 0 60 3 62 20 2 11
0 14 -3 8 -3 -8 -24 -13 -50 -13 l-44 0 0 50 c0 48 1 50 28 50 15 0 33 -5 40
-12 9 -9 12 -6 12 17 0 23 -3 26 -12 17 -7 -7 -24 -12 -39 -12 -30 0 -40 21
-32 64 5 23 10 26 43 26 21 0 41 -6 43 -12 3 -8 6 -6 6 5 1 15 -9 17 -70 17
-58 0 -69 -3 -61 -13z"/>
<path d="M2413 4265 l-2 -115 45 -2 c24 -1 52 -2 61 -2 11 -1 19 7 20 19 2 11
0 14 -3 8 -3 -8 -24 -13 -50 -13 l-44 0 0 50 0 50 35 0 c22 0 38 -6 44 -17 9
-15 10 -12 11 16 0 28 -2 32 -15 21 -8 -7 -25 -10 -40 -6 -21 5 -25 12 -25 45
0 24 5 41 14 44 21 8 59 -3 74 -21 11 -14 12 -13 12 5 0 24 -24 33 -90 33
l-45 0 -2 -115z"/>
<path d="M1926 4362 c-12 -5 -16 -11 -9 -15 6 -4 14 -40 18 -79 12 -134 10
-131 63 -124 84 11 112 50 97 136 -11 63 -33 83 -96 86 -30 2 -63 0 -73 -4z
m96 -13 c39 -21 59 -103 37 -153 -12 -26 -61 -52 -78 -42 -11 7 -26 168 -17
191 6 18 29 19 58 4z"/>
<path d="M2592 4348 c-25 -25 -13 -60 33 -101 50 -45 58 -79 24 -97 -15 -8
-29 -8 -51 -1 -17 6 -34 9 -36 6 -10 -10 8 -17 53 -23 54 -6 85 15 85 59 0 26
-11 40 -73 91 -20 16 -26 28 -22 41 9 22 47 32 73 18 20 -11 39 -1 25 13 -11
11 -99 6 -111 -6z"/>
<path d="M2745 4342 c-3 -3 -5 -11 -5 -19 0 -10 4 -11 19 -2 23 15 51 5 51
-18 -1 -10 -9 -57 -19 -105 -14 -70 -15 -88 -4 -88 7 0 15 10 17 23 3 12 13
57 22 100 14 70 18 77 40 77 12 0 28 -8 34 -17 10 -17 11 -17 8 1 -2 16 -19
23 -80 37 -43 9 -80 14 -83 11z"/>
<path d="M1643 4304 c-23 -23 -25 -31 -20 -84 5 -63 28 -107 63 -120 30 -12
91 6 104 30 24 45 2 156 -38 186 -29 23 -80 17 -109 -12z m99 -15 c25 -33 37
-142 18 -164 -7 -8 -25 -15 -41 -15 -36 0 -58 39 -66 116 -5 44 -2 58 13 75
23 25 52 21 76 -12z"/>
<path d="M2945 4291 c3 -6 -4 -46 -15 -90 -24 -92 -21 -114 18 -129 59 -23 71
-23 90 -4 20 20 49 106 59 172 10 63 -13 19 -37 -73 -20 -75 -26 -88 -47 -93
-35 -9 -73 11 -73 38 0 13 9 56 20 96 25 89 25 92 -1 92 -11 0 -18 -4 -14 -9z"/>
<path d="M1448 4268 c-35 -9 -36 -11 -24 -31 8 -12 24 -59 36 -105 21 -77 34
-102 47 -89 3 3 -1 29 -8 56 -7 28 -10 54 -6 58 4 4 30 -15 57 -42 34 -34 53
-46 60 -39 7 7 -2 22 -30 48 -44 41 -47 48 -25 66 17 14 19 43 5 71 -12 21
-50 24 -112 7z m73 -8 c28 -15 24 -56 -7 -76 -30 -20 -40 -12 -49 38 -6 30 -4
37 12 41 10 3 19 5 21 6 2 0 12 -4 23 -9z"/>
<path d="M1288 4213 c-51 -19 -68 -30 -68 -44 0 -11 5 -19 10 -19 6 0 10 6 10
14 0 17 38 32 50 19 4 -4 22 -47 40 -95 19 -52 38 -88 46 -88 18 0 19 -3 -22
100 -41 101 -39 126 6 117 23 -5 28 -3 23 8 -7 19 -13 18 -95 -12z"/>
<path d="M3165 4228 c3 -7 -11 -53 -30 -102 -19 -49 -35 -93 -35 -97 0 -11 60
-29 100 -29 57 0 100 58 100 134 0 38 -27 67 -82 91 -45 18 -59 19 -53 3z m85
-38 c55 -55 -11 -193 -84 -174 -14 3 -28 10 -31 14 -4 7 45 147 61 172 9 14
34 8 54 -12z"/>
<path d="M1160 4150 c0 -7 16 -40 35 -74 39 -70 46 -99 18 -74 -10 9 -48 34
-85 57 -48 30 -74 41 -88 36 -19 -6 -20 -9 -7 -23 8 -10 34 -55 57 -101 22
-45 43 -81 46 -78 3 2 -13 43 -35 91 l-40 86 57 -37 c31 -19 73 -46 92 -59 32
-22 60 -31 60 -19 0 3 -21 48 -47 101 -44 91 -63 119 -63 94z"/>
<path d="M3366 4146 c3 -7 -13 -53 -36 -101 -26 -58 -37 -92 -31 -98 7 -7 26
23 56 83 50 103 52 115 29 124 -22 9 -24 8 -18 -8z"/>
<path d="M3447 4070 c-29 -23 -67 -96 -67 -129 0 -30 52 -81 83 -81 47 0 107
68 122 137 6 28 2 37 -23 63 -36 36 -77 39 -115 10z m91 -6 c27 -19 28 -46 2
-99 -41 -85 -93 -110 -126 -60 -16 24 -15 28 10 80 24 48 66 95 85 95 4 0 17
-7 29 -16z"/>
<path d="M903 4012 c-49 -36 -51 -39 -34 -53 9 -9 39 -50 66 -92 l48 -76 29
17 c15 9 41 26 56 39 22 17 25 24 15 34 -11 11 -13 10 -13 -2 0 -8 -14 -25
-31 -38 -34 -25 -49 -19 -74 30 -13 24 -12 28 4 43 10 9 25 16 34 16 19 0 20
2 11 24 -8 20 -24 21 -24 2 0 -7 -11 -21 -25 -30 -23 -15 -25 -15 -50 18 -14
18 -25 35 -25 38 0 11 55 42 72 41 11 -1 15 3 11 13 -7 20 -11 18 -70 -24z"/>
<path d="M3640 3960 c-24 -24 -25 -38 -4 -89 20 -50 15 -82 -13 -92 -17 -6
-29 -1 -54 22 -17 16 -34 27 -38 23 -3 -3 9 -19 27 -35 79 -71 153 -4 106 95
-31 63 8 97 56 51 30 -29 54 -28 30 0 -15 18 -63 45 -80 45 -5 0 -19 -9 -30
-20z"/>
<path d="M745 3885 c-15 -14 -25 -36 -25 -52 0 -61 72 -133 134 -133 29 0 96
42 96 61 0 6 -15 -1 -33 -15 -19 -15 -42 -26 -52 -26 -44 0 -125 79 -125 123
0 25 29 47 61 47 16 0 29 5 29 10 0 20 -61 10 -85 -15z"/>
<path d="M2899 3444 c59 -76 137 -203 175 -287 177 -380 135 -619 -163 -918
-100 -100 -248 -222 -343 -282 -24 -15 -28 -24 -28 -67 0 -28 4 -50 8 -50 17
0 198 113 290 181 195 145 343 325 403 490 84 231 38 519 -116 729 -38 52
-193 203 -227 221 -21 11 -21 11 1 -17z"/>
<path d="M1505 3432 c-66 -42 -144 -128 -172 -188 -36 -79 -50 -186 -34 -258
29 -129 119 -256 296 -417 179 -163 372 -366 439 -462 84 -120 122 -201 142
-304 20 -97 13 -156 -22 -209 -28 -41 -26 -51 8 -34 75 39 103 110 95 239 -6
105 -41 207 -121 349 -104 186 -218 332 -423 543 -218 225 -271 326 -260 492
6 101 17 136 62 211 19 33 34 60 33 61 -2 2 -21 -9 -43 -23z"/>
<path d="M2975 3099 c57 -121 75 -193 75 -296 0 -156 -50 -252 -244 -465 -64
-70 -122 -130 -130 -135 -7 -4 -48 -41 -91 -81 l-78 -73 12 -39 c6 -22 16 -40
20 -40 14 0 190 160 265 241 230 247 324 454 296 652 -12 83 -39 151 -97 238
-66 102 -77 101 -28 -2z"/>
<path d="M1184 2898 c15 -234 72 -338 267 -484 30 -22 106 -79 170 -127 177
-131 286 -244 387 -400 75 -115 102 -218 79 -302 l-8 -30 28 28 c26 26 28 32
28 115 0 93 -15 143 -76 267 -68 139 -227 302 -540 554 -85 68 -171 146 -192
173 -53 66 -95 153 -115 237 -9 39 -21 71 -26 71 -5 0 -6 -43 -2 -102z"/>
<path d="M2928 2846 c10 -159 -84 -312 -392 -633 -58 -61 -67 -76 -62 -98 4
-14 10 -25 15 -25 4 0 75 69 158 153 157 160 260 288 299 372 43 92 41 209 -4
265 -17 21 -17 20 -14 -34z"/>
<path d="M1140 2690 c-7 -89 27 -238 75 -330 61 -116 146 -188 395 -335 288
-170 390 -260 435 -384 l14 -36 0 37 c2 107 -123 289 -293 427 -39 31 -127 97
-196 146 -166 118 -212 157 -281 239 -55 65 -122 178 -139 235 l-8 26 -2 -25z"/>
<path d="M2312 2448 c-20 -11 -59 -35 -87 -52 -27 -18 -65 -41 -82 -52 -18
-10 -33 -23 -33 -29 0 -6 20 -42 44 -81 103 -165 166 -337 166 -450 0 -96 -52
-192 -125 -232 -20 -11 -20 -11 1 -12 35 0 156 66 203 111 24 23 54 65 67 93
41 88 29 228 -29 341 -39 76 -18 160 58 238 30 31 43 38 66 35 28 -4 29 -3 29
41 0 25 -4 51 -8 57 -4 7 -47 11 -120 11 -92 0 -119 -3 -150 -19z m76 -50
c-15 -22 -68 -38 -68 -21 0 10 50 41 69 42 11 1 11 -3 -1 -21z"/>
<path d="M665 2171 l-110 -6 -3 -63 c-2 -50 0 -63 13 -68 19 -8 34 4 18 14
-11 7 -16 30 -14 70 1 21 5 23 49 20 42 -3 47 -6 50 -29 2 -15 -4 -34 -13 -43
-15 -15 -14 -16 16 -16 26 0 29 2 20 14 -7 8 -11 27 -9 43 3 25 7 28 43 28 38
0 40 -2 43 -33 2 -18 -2 -40 -9 -48 -9 -11 -8 -14 5 -14 13 0 16 12 16 70 0
39 -1 69 -2 68 -2 -1 -52 -4 -113 -7z"/>
<path d="M3829 2170 c-8 -5 -24 -27 -34 -49 -32 -71 -92 -63 -82 11 6 42 -8
53 -15 13 -8 -40 3 -75 27 -91 31 -20 63 -6 89 41 12 21 31 44 43 52 19 13 24
12 43 -7 18 -18 20 -28 15 -62 -5 -29 -4 -39 4 -34 16 11 13 88 -5 114 -16 23
-56 29 -85 12z"/>
<path d="M3905 2003 c28 -55 -7 -95 -70 -79 -27 7 -33 33 -15 67 9 17 7 19
-16 19 -22 0 -24 -2 -15 -14 7 -8 11 -27 9 -43 -3 -25 -7 -28 -43 -28 -38 0
-40 2 -43 33 -2 18 2 40 9 48 9 11 8 14 -5 14 -13 0 -16 -12 -16 -72 0 -56 3
-69 12 -60 8 8 48 12 115 12 l104 0 -3 62 c-2 50 -7 63 -20 66 -16 3 -16 1 -3
-25z"/>
<path d="M764 2010 c-5 -5 -54 -11 -109 -12 l-100 -3 0 -60 c0 -57 1 -60 25
-63 22 -2 23 -1 8 8 -12 8 -18 24 -18 50 l0 40 105 0 105 0 0 25 c0 28 -2 29
-16 15z"/>
<path d="M3890 1869 c0 -5 5 -9 10 -9 6 0 10 -18 10 -40 l0 -39 -102 -3 c-101
-3 -103 -3 -106 -28 -3 -20 -1 -23 9 -12 9 8 47 12 116 12 l103 0 0 59 c0 50
-3 59 -20 64 -11 3 -20 1 -20 -4z"/>
<path d="M770 1860 c0 -5 -47 -11 -107 -12 l-108 -3 0 -60 c0 -52 3 -60 20
-63 13 -2 16 0 8 5 -13 9 -17 31 -15 71 2 20 7 22 52 22 49 0 50 -1 50 -29 0
-17 -4 -33 -10 -36 -20 -12 -9 -22 18 -17 15 3 21 7 15 9 -7 3 -13 20 -13 39
0 34 0 34 45 34 l45 0 0 -40 c0 -22 -4 -40 -10 -40 -5 0 -10 -4 -10 -10 0 -5
7 -10 15 -10 12 0 15 15 15 75 0 41 -2 75 -5 75 -3 0 -5 -4 -5 -10z"/>
<path d="M3890 1721 c0 -6 4 -11 9 -11 14 0 22 -29 15 -56 -6 -23 -8 -24 -110
-24 l-104 0 0 -26 c0 -21 3 -24 13 -16 7 6 58 13 113 14 l99 3 0 60 c0 49 -3
60 -17 63 -10 2 -18 -1 -18 -7z"/>
<path d="M765 1690 c-3 -5 -52 -11 -108 -12 l-102 -2 95 -5 c56 -4 90 -9 82
-14 -7 -5 -50 -21 -95 -36 -47 -16 -82 -33 -82 -41 0 -7 39 -26 93 -45 51 -17
89 -34 85 -38 -3 -4 -46 -7 -95 -7 -67 0 -89 -3 -86 -12 3 -9 35 -13 114 -13
102 0 109 1 112 20 2 17 -11 25 -82 50 -46 17 -85 34 -86 40 -1 5 37 22 84 38
82 27 86 30 86 58 0 30 -5 36 -15 19z"/>
<path d="M3805 1526 c-84 -28 -101 -36 -103 -56 -3 -14 0 -20 8 -15 6 4 25 0
43 -8 114 -53 151 -67 161 -64 6 2 -6 13 -27 23 -36 17 -38 20 -35 63 3 41 6
45 37 56 35 11 55 35 29 35 -7 -1 -58 -16 -113 -34z m35 -55 c0 -39 -6 -42
-51 -22 -55 25 -55 27 -7 44 51 17 58 15 58 -22z"/>
<path d="M763 1415 c-6 -7 -50 -18 -97 -25 -46 -7 -89 -16 -94 -19 -7 -4 -7
-25 0 -61 10 -60 20 -76 38 -65 8 5 7 10 -5 18 -8 7 -18 28 -21 48 -6 34 -5
36 26 43 58 11 67 8 72 -24 3 -16 0 -34 -6 -40 -7 -7 -1 -10 17 -10 31 0 33 5
11 27 -25 25 -14 56 26 66 28 7 36 5 47 -9 16 -22 17 -56 1 -72 -9 -9 -8 -12
6 -12 17 0 18 6 11 68 -7 73 -14 87 -32 67z"/>
<path d="M3690 1376 c0 -2 36 -27 81 -56 53 -36 76 -56 67 -61 -7 -3 -49 -10
-93 -14 -77 -7 -95 -15 -95 -44 0 -9 4 -10 13 -3 6 5 50 15 97 21 112 15 140
21 140 29 0 9 -187 132 -200 132 -6 0 -10 -2 -10 -4z"/>
<path d="M800 1241 c0 -5 -30 -21 -67 -35 -123 -46 -128 -48 -116 -53 6 -2 46
10 89 26 43 17 80 29 82 26 2 -2 -26 -40 -62 -85 -90 -112 -88 -116 23 -76
111 40 124 46 118 52 -3 4 -38 -6 -77 -21 -39 -15 -74 -25 -77 -22 -3 3 22 39
55 80 46 55 59 79 55 96 -5 21 -23 30 -23 12z"/>
<path d="M3599 1078 c-6 -13 -23 -42 -36 -65 -21 -36 -22 -41 -6 -37 10 3 56
-16 102 -41 47 -25 87 -45 91 -45 8 0 60 93 60 108 0 5 -7 13 -16 16 -12 4
-14 1 -9 -14 6 -20 -19 -80 -35 -80 -15 0 -80 41 -80 51 0 6 11 21 24 34 24
24 24 25 5 35 -16 9 -19 7 -19 -13 0 -13 -6 -31 -13 -41 -13 -17 -15 -17 -45
-2 -17 9 -34 20 -37 26 -8 14 26 70 43 70 7 0 10 5 7 10 -10 16 -23 12 -36
-12z"/>
<path d="M867 1053 c-4 -3 3 -11 15 -17 43 -22 32 -41 -51 -90 -45 -26 -83
-52 -87 -57 -16 -26 12 -17 89 30 47 28 90 51 96 51 13 0 25 -45 16 -59 -3 -7
0 -8 9 -5 23 9 20 18 -21 89 -36 61 -51 74 -66 58z"/>
<path d="M3509 905 c-23 -13 -79 -76 -79 -89 0 -3 5 -6 10 -6 6 0 47 -27 92
-60 76 -56 83 -59 100 -44 9 9 25 36 34 59 15 41 15 45 -1 73 -19 32 -90 82
-115 82 -8 -1 -27 -7 -41 -15z m64 -26 c12 -6 34 -23 50 -37 30 -29 36 -76 13
-107 -13 -18 -17 -17 -90 39 -42 32 -76 64 -76 71 0 18 39 45 63 45 10 0 28
-5 40 -11z"/>
<path d="M970 844 c-25 -13 -70 -30 -100 -40 -30 -9 -59 -20 -64 -25 -15 -13
19 -11 49 3 24 11 29 9 57 -21 31 -33 31 -33 14 -67 -18 -39 -20 -54 -7 -54 5
0 34 46 65 102 44 80 54 104 44 113 -10 8 -25 5 -58 -11z m28 -21 c-25 -52
-43 -83 -49 -83 -4 0 -17 13 -28 29 l-21 29 42 15 c50 18 61 20 56 10z"/>
<path d="M1100 757 c0 -9 -30 -48 -66 -87 -38 -40 -64 -76 -61 -83 3 -8 23
-28 45 -45 34 -28 41 -30 52 -17 10 13 9 15 -12 15 -24 0 -58 27 -58 46 0 5
30 43 66 83 62 67 66 74 50 89 -15 15 -16 15 -16 -1z"/>
<path d="M3306 699 c-75 -59 -36 -130 59 -109 55 12 85 0 85 -34 0 -24 -28
-56 -48 -56 -7 0 -12 -4 -12 -10 0 -17 17 -11 49 16 37 31 41 74 11 104 -22
22 -40 24 -90 10 -19 -5 -43 -7 -52 -4 -28 8 -22 49 9 72 16 11 25 23 22 26
-3 4 -18 -3 -33 -15z"/>
<path d="M1220 655 c0 -8 -25 -48 -55 -89 -30 -41 -56 -79 -57 -84 -2 -5 19
-27 45 -47 46 -35 50 -36 65 -20 16 16 16 17 -4 11 -15 -5 -31 1 -53 19 l-30
26 26 40 c14 21 29 39 33 39 5 0 19 -13 33 -29 18 -22 27 -27 36 -18 16 16 14
27 -6 27 -10 0 -26 7 -37 15 -18 13 -18 15 4 49 12 20 25 36 29 36 17 0 61
-42 61 -58 0 -12 3 -13 11 -5 15 15 8 25 -51 67 -35 25 -50 32 -50 21z"/>
<path d="M3151 580 c-30 -22 -47 -40 -39 -40 14 0 44 -36 123 -148 l16 -22 53
37 c32 22 52 43 49 50 -7 17 -23 17 -23 -1 0 -15 -45 -56 -61 -56 -5 0 -20 17
-34 38 l-26 37 22 18 c12 9 30 17 40 17 17 0 18 3 7 20 -15 23 -28 26 -28 6 0
-8 -10 -22 -22 -31 -22 -15 -24 -14 -51 17 l-28 33 26 23 c14 12 35 22 46 22
11 0 17 5 14 10 -10 17 -28 11 -84 -30z"/>
<path d="M1333 524 c-17 -26 -16 -28 10 -75 32 -58 34 -85 8 -99 -28 -15 -36
-13 -70 16 -17 14 -31 21 -31 16 0 -6 12 -20 27 -32 38 -30 92 -24 113 13 14
25 13 30 -12 80 -32 60 -34 70 -13 87 12 10 22 8 51 -9 44 -26 55 -21 18 8
-38 30 -79 27 -101 -5z"/>
<path d="M2987 486 c-34 -16 -44 -25 -33 -29 8 -3 36 -47 61 -97 25 -49 50
-90 55 -90 15 0 12 22 -10 64 -10 22 -17 43 -14 47 2 4 31 -8 63 -26 66 -39
71 -40 71 -22 0 7 -20 23 -45 37 -44 24 -55 42 -35 55 14 9 13 58 -2 73 -18
18 -58 14 -111 -12z m94 -24 c6 -17 3 -28 -12 -43 -11 -11 -26 -18 -32 -16
-19 6 -41 52 -34 71 10 26 67 18 78 -12z"/>
<path d="M1554 444 c5 -11 11 -43 15 -72 6 -41 4 -61 -11 -93 -21 -47 -22 -59
-7 -59 6 0 20 21 31 48 15 35 34 58 75 87 30 22 50 41 44 43 -5 2 -29 -11 -52
-27 -23 -17 -44 -29 -47 -27 -2 3 -7 29 -11 58 -5 41 -10 54 -25 56 -15 3 -17
0 -12 -14z"/>
<path d="M2824 418 c-46 -22 -51 -83 -13 -160 29 -58 72 -72 129 -43 35 18 46
59 29 115 -25 82 -84 118 -145 88z m75 -20 c25 -26 54 -109 49 -140 -2 -12
-15 -29 -30 -38 -26 -14 -29 -14 -51 10 -27 28 -57 98 -57 132 0 27 27 58 51
58 10 0 27 -10 38 -22z"/>
<path d="M2693 373 c-10 -3 -9 -9 1 -26 7 -12 24 -59 37 -104 14 -50 28 -83
36 -83 15 0 16 8 4 46 -6 16 -19 62 -31 102 -11 39 -24 72 -28 71 -4 0 -13 -3
-19 -6z"/>
<path d="M1807 342 c-26 -28 -21 -48 23 -96 64 -69 46 -118 -33 -91 -27 9 -37
10 -34 1 2 -6 20 -15 41 -21 51 -12 90 8 94 51 2 26 -5 39 -37 70 -63 59 -48
111 24 84 31 -12 48 -4 25 10 -26 16 -86 11 -103 -8z"/>
<path d="M2537 343 c-22 -4 -27 -8 -21 -21 4 -9 15 -56 24 -103 18 -91 26
-112 39 -104 5 2 4 27 -2 55 -5 28 -7 54 -3 57 3 4 28 -14 54 -40 62 -61 86
-61 32 0 -41 47 -41 48 -21 64 13 11 21 29 21 48 0 46 -32 57 -123 44z m74
-13 c29 -16 25 -64 -7 -79 -33 -15 -40 -9 -49 35 -9 49 14 66 56 44z"/>
<path d="M1958 317 c8 -9 8 -34 1 -82 -11 -81 -6 -110 21 -125 29 -16 89 -15
105 1 23 23 48 218 26 205 -5 -3 -12 -40 -16 -83 -10 -108 -17 -123 -59 -123
-51 0 -60 18 -52 103 4 39 10 82 13 95 4 19 1 22 -22 22 -21 0 -25 -3 -17 -13z"/>
<path d="M2380 321 c-30 -3 -50 -9 -43 -14 6 -4 14 -42 18 -85 11 -140 8 -134
73 -126 57 6 82 18 69 31 -4 4 -13 1 -19 -5 -7 -7 -29 -12 -50 -12 l-38 0 0
51 0 52 40 -6 c36 -5 40 -3 40 16 0 16 -3 18 -12 9 -7 -7 -27 -12 -45 -12 -33
0 -33 1 -33 46 l0 47 49 -5 c38 -4 48 -2 44 9 -3 7 -13 12 -22 11 -9 -1 -41
-4 -71 -7z"/>
<path d="M2168 206 c3 -93 6 -116 18 -116 10 0 14 14 14 55 l0 55 36 0 c53 0
74 15 74 54 0 44 -17 57 -87 63 l-58 5 3 -116z m96 88 c19 -7 21 -55 4 -72 -7
-7 -25 -12 -40 -12 -26 0 -28 3 -28 38 0 21 3 42 7 45 8 9 36 9 57 1z"/>
</g>
</svg>
